<svg width="100" height="100" viewBox="0 0 100 100" fill="none" xmlns="http://www.w3.org/2000/svg">
<path d="M50 100C77.6143 100 100 77.6143 100 50C100 22.3857 77.6143 0 50 0C22.3857 0 0 22.3857 0 50C0 77.6143 22.3857 100 50 100ZM46.4286 32.1429C46.4286 31.1957 46.8048 30.2872 47.4746 29.6175C48.1444 28.9477 49.0528 28.5714 50 28.5714C50.9472 28.5714 51.8556 28.9477 52.5254 29.6175C53.1952 30.2872 53.5714 31.1957 53.5714 32.1429V46.4286H67.8571C68.8043 46.4286 69.7128 46.8048 70.3825 47.4746C71.0523 48.1444 71.4286 49.0528 71.4286 50C71.4286 50.9472 71.0523 51.8556 70.3825 52.5254C69.7128 53.1952 68.8043 53.5714 67.8571 53.5714H53.5714V67.8571C53.5714 68.8043 53.1952 69.7128 52.5254 70.3825C51.8556 71.0523 50.9472 71.4286 50 71.4286C49.0528 71.4286 48.1444 71.0523 47.4746 70.3825C46.8048 69.7128 46.4286 68.8043 46.4286 67.8571V53.5714H32.1429C31.1957 53.5714 30.2872 53.1952 29.6175 52.5254C28.9477 51.8556 28.5714 50.9472 28.5714 50C28.5714 49.0528 28.9477 48.1444 29.6175 47.4746C30.2872 46.8048 31.1957 46.4286 32.1429 46.4286H46.4286V32.1429Z" fill="#2787F5"/>
</svg>
